<svg xmlns="http://www.w3.org/2000/svg" viewBox="0 0 500 500"><g id="freepik--background-simple--inject-186"><path d="M240.8,133.24C236,98.72,225.58,78.31,199.56,65.7S141.21,57,116.79,72.44s-41.24,41.3-49.29,69.07c-15,51.54-.59,108.89,30.74,152.46s78,74.33,127.92,94.11c33,13.06,68.11,21.78,103.54,20.69s71.22-12.59,97.76-36.08,49.25-74.11,41.88-101.55c-9.19-34.23-17.1-51.63-51.1-61.63-29.4-8.65-43.91-3-62.21,1.25s-31,10.67-49.76,9.61-38.23-9.12-47.92-25.21C248,178,241.54,153.64,240.8,133.24" style="fill:#ebebeb"></path></g><g id="freepik--Device--inject-186"><path d="M318.26,381.39l-111.53-.52a24.29,24.29,0,0,1-24.18-24.4l1.18-279.59a24.3,24.3,0,0,1,24.41-24.19l111.52.52A24.29,24.29,0,0,1,343.84,77.6l-1.18,279.59A24.29,24.29,0,0,1,318.26,381.39Z" style="fill:#263238"></path><path d="M319.5,62.86l-21.62-.1a5.36,5.36,0,0,0-5.27,5.46l0,3.92a5.37,5.37,0,0,1-5.27,5.47l-42.15-.2a5.38,5.38,0,0,1-5.23-5.51L240,68a5.38,5.38,0,0,0-5.23-5.51l-7.6,0-18.93-.09a17,17,0,0,0-17.09,17L190,352.19a17,17,0,0,0,16.93,17.08l111.3.52a17,17,0,0,0,17.09-17l1.16-272.9A17,17,0,0,0,319.5,62.86Z" style="fill:#fafafa"></path><rect x="250.61" y="96.46" width="28.71" height="5.27" transform="matrix(1, 0, 0, 1, 0.46, -1.22)" style="fill:#455a64"></rect><path d="M217.18,139.63a3.2,3.2,0,0,1,.68.09,2.73,2.73,0,0,1,.63-.09Z" style="fill:#455a64"></path><path d="M225.05,125.17a8.31,8.31,0,0,0-1.9-1.89,8.91,8.91,0,0,0-10.58,0,8.36,8.36,0,0,0-1.91,1.89,8.15,8.15,0,0,0-1.22,2.26,9,9,0,0,0,1.24,8.52c.11.15.23.28.34.41a6.46,6.46,0,0,1,5.42-4.5,4.32,4.32,0,0,1-2.59-4,4.07,4.07,0,1,1,8.12,0,4.33,4.33,0,0,1-2.58,4,6.34,6.34,0,0,1,5.32,4.49l.33-.4a9,9,0,0,0,1.24-8.52A8.45,8.45,0,0,0,225.05,125.17Z" style="fill:#fafafa"></path><path d="M226.78,127.25a8.63,8.63,0,0,0-1.28-2.41,9,9,0,0,0-2-2,9.45,9.45,0,0,0-11.26,0,8.75,8.75,0,0,0-2,2,8.93,8.93,0,0,0-1.29,2.41,9.56,9.56,0,0,0-.38,5,9.38,9.38,0,0,0,1.8,4,9.2,9.2,0,0,0,5.23,3.35,7.27,7.27,0,0,0,1.69.2,2.23,2.23,0,0,0,.59,0,3.2,3.2,0,0,0-.68-.09h1.31a2.73,2.73,0,0,0-.63.09,2.23,2.23,0,0,0,.59,0,7.27,7.27,0,0,0,1.69-.2,9.18,9.18,0,0,0,5.22-3.35,9.27,9.27,0,0,0,1.81-4A9.47,9.47,0,0,0,226.78,127.25Zm-.09,4.9A9,9,0,0,1,225,136l-.33.4a6.34,6.34,0,0,0-5.32-4.49,4.33,4.33,0,0,0,2.58-4,4.07,4.07,0,1,0-8.12,0,4.32,4.32,0,0,0,2.59,4,6.46,6.46,0,0,0-5.42,4.5c-.11-.13-.23-.26-.34-.41a9,9,0,0,1-1.24-8.52,8.15,8.15,0,0,1,1.22-2.26,8.36,8.36,0,0,1,1.91-1.89,8.91,8.91,0,0,1,10.58,0,8.31,8.31,0,0,1,1.9,1.89,8.45,8.45,0,0,1,1.23,2.26A9,9,0,0,1,226.69,132.15Z" style="fill:#455a64"></path><path d="M325.9,148.05s.29,0,.83-.11a4.35,4.35,0,0,0,2.13-1.12,4.45,4.45,0,0,0,1.34-3.57c0-1.59,0-3.42,0-5.47,0-4.12,0-9.15-.05-15,0-1.46,0-3,0-4.54a4.24,4.24,0,0,0-2.09-3.88c-1.38-.87-3.18-.49-4.91-.57h-5.38l-115,.08a4.14,4.14,0,0,0-3.35,1.73,4,4,0,0,0-.71,1.8,19.36,19.36,0,0,0-.05,2v24.39a4.11,4.11,0,0,0,1.7,3.14,4,4,0,0,0,1.67.71,11.81,11.81,0,0,0,1.9.07h22.66l51.69.06,34.84.09,9.48.05,2.46,0c.56,0,.84,0,.84,0l-.84,0-2.46,0-9.48.06-34.84.09-51.69.06H203.93a13.57,13.57,0,0,1-2-.08,4.67,4.67,0,0,1-3.84-4.38q0-7.95,0-16.16v-8.26c0-.7,0-1.37,0-2.12a4.63,4.63,0,0,1,.81-2,4.7,4.7,0,0,1,3.83-2l115,.08h8a4.54,4.54,0,0,1,2.5.64,4.6,4.6,0,0,1,2.25,4.2c0,1.56,0,3.08,0,4.54,0,5.84,0,10.87-.05,15,0,2.05,0,3.88,0,5.47a4.6,4.6,0,0,1-1.44,3.66,4.36,4.36,0,0,1-2.2,1.09A3.14,3.14,0,0,1,325.9,148.05Z" style="fill:#455a64"></path><rect x="235.68" y="122.56" width="32.48" height="2.44" style="fill:#455a64"></rect><rect x="235.68" y="136.32" width="56.9" height="2.44" style="fill:#455a64"></rect><rect x="235.68" y="129.27" width="82.46" height="2.44" style="fill:#455a64"></rect><path d="M217.18,225.79c.44.06.68.06.68.1a2.73,2.73,0,0,1,.63-.09Z" style="fill:#455a64"></path><path d="M225.05,211.34a8.12,8.12,0,0,0-1.9-1.89,8.91,8.91,0,0,0-10.58,0,8.92,8.92,0,0,0-3.13,4.15,9,9,0,0,0,1.24,8.52l.34.41a6.43,6.43,0,0,1,5.42-4.5,4.32,4.32,0,0,1-2.59-4,4.07,4.07,0,1,1,8.12,0,4.34,4.34,0,0,1-2.58,4,6.33,6.33,0,0,1,5.32,4.48l.33-.39a9,9,0,0,0,1.24-8.52A8.45,8.45,0,0,0,225.05,211.34Z" style="fill:#fafafa"></path><path d="M226.78,213.42A8.49,8.49,0,0,0,225.5,211a9,9,0,0,0-2-2,9.45,9.45,0,0,0-11.26,0,9.61,9.61,0,0,0-3.3,4.43,9.53,9.53,0,0,0-.38,5,9.37,9.37,0,0,0,1.8,4,9.23,9.23,0,0,0,5.23,3.34,6.87,6.87,0,0,0,1.69.21,2.23,2.23,0,0,0,.59,0s-.24,0-.68-.1h1.31a2.73,2.73,0,0,0-.63.09,2.23,2.23,0,0,0,.59,0,6.87,6.87,0,0,0,1.69-.21,9.21,9.21,0,0,0,5.22-3.34,9.32,9.32,0,0,0,1.81-4A9.43,9.43,0,0,0,226.78,213.42Zm-.09,4.9a9,9,0,0,1-1.65,3.8l-.33.39a6.33,6.33,0,0,0-5.32-4.48,4.34,4.34,0,0,0,2.58-4,4.07,4.07,0,1,0-8.12,0,4.32,4.32,0,0,0,2.59,4,6.43,6.43,0,0,0-5.42,4.5l-.34-.41a9,9,0,0,1-1.24-8.52,8.92,8.92,0,0,1,3.13-4.15,8.91,8.91,0,0,1,10.58,0,8.12,8.12,0,0,1,1.9,1.89,8.45,8.45,0,0,1,1.23,2.26A9,9,0,0,1,226.69,218.32Z" style="fill:#455a64"></path><path d="M325.9,234.22s.29,0,.83-.11a4.35,4.35,0,0,0,2.13-1.12,4.45,4.45,0,0,0,1.34-3.58c0-1.58,0-3.41,0-5.47,0-4.11,0-9.15-.05-15,0-1.46,0-3,0-4.53a4.26,4.26,0,0,0-2.09-3.89c-1.38-.87-3.18-.49-4.91-.57h-5.38l-115,.09a4.11,4.11,0,0,0-3.35,1.73,3.93,3.93,0,0,0-.71,1.79,19.5,19.5,0,0,0-.05,2V230a4.13,4.13,0,0,0,1.7,3.14,4,4,0,0,0,1.67.71,13.09,13.09,0,0,0,1.9.07h22.66l51.69.06,34.84.1,9.48,0,2.46,0c.56,0,.84,0,.84,0s-.28,0-.84,0l-2.46,0-9.48.05-34.84.1-51.69.06H203.93a13.52,13.52,0,0,1-2-.07A4.67,4.67,0,0,1,198.1,230q0-7.95,0-16.16v-8.26c0-.7,0-1.36,0-2.12a4.63,4.63,0,0,1,.81-2.05,4.72,4.72,0,0,1,3.83-2l115,.08h8a4.58,4.58,0,0,1,4.75,4.84c0,1.56,0,3.07,0,4.53,0,5.84,0,10.88-.05,15,0,2.06,0,3.89,0,5.47a4.59,4.59,0,0,1-1.44,3.66,4.39,4.39,0,0,1-2.2,1.1A3.14,3.14,0,0,1,325.9,234.22Z" style="fill:#455a64"></path><rect x="235.68" y="208.72" width="32.48" height="2.44" style="fill:#455a64"></rect><rect x="235.68" y="222.49" width="56.9" height="2.44" style="fill:#455a64"></rect><rect x="235.68" y="215.44" width="82.46" height="2.44" style="fill:#455a64"></rect><rect x="247.4" y="107.05" width="34.45" height="131.92" rx="3.93" transform="translate(90.86 437.13) rotate(-89.84)" style="fill:#262626"></rect><rect x="235.99" y="164.7" width="32.48" height="2.44" transform="translate(0.48 -0.72) rotate(0.16)" style="fill:#fafafa"></rect><rect x="235.95" y="178.5" width="56.9" height="2.44" transform="translate(0.52 -0.76) rotate(0.16)" style="fill:#fafafa"></rect><rect x="235.97" y="171.49" width="82.46" height="2.44" transform="translate(0.5 -0.79) rotate(0.16)" style="fill:#fafafa"></rect><path d="M219.71,173.88a4.35,4.35,0,0,0,2.5-4.06,4.07,4.07,0,1,0-8.12.13,4.32,4.32,0,0,0,2.67,4,6.51,6.51,0,0,0-5.4,4.84,9.27,9.27,0,0,0,5.7,2.92l2.5,0a9.18,9.18,0,0,0,5.66-3.18A6.4,6.4,0,0,0,219.71,173.88Z" style="fill:#fafafa"></path><path d="M218.35,181.77c0-.07.82,0,2.22-.44a9.07,9.07,0,0,0,6-12,8.33,8.33,0,0,0-1.27-2.24,8.62,8.62,0,0,0-1.95-1.86,9,9,0,0,0-10.62.23,8.6,8.6,0,0,0-1.87,1.94,8.45,8.45,0,0,0-1.18,2.29,9.12,9.12,0,0,0,6.47,11.78c1.42.34,2.25.27,2.24.34a7.07,7.07,0,0,1-2.28-.14,9.22,9.22,0,0,1-5.28-3.23,9.37,9.37,0,0,1-1.88-3.92,9.47,9.47,0,0,1,.28-5,9.57,9.57,0,0,1,3.19-4.49,9.43,9.43,0,0,1,11.22-.24,8.94,8.94,0,0,1,2.05,2,8.76,8.76,0,0,1,1.33,2.38,9.41,9.41,0,0,1,.49,5,9.33,9.33,0,0,1-6.84,7.45A6.9,6.9,0,0,1,218.35,181.77Z" style="fill:#fafafa"></path><path d="M256.51,343.66a2.32,2.32,0,0,1-4.59,0,2.32,2.32,0,0,1,4.59,0Z" style="fill:#455a64"></path><path d="M263.63,343.69a2.32,2.32,0,1,1-2.29-2A2.15,2.15,0,0,1,263.63,343.69Z" style="fill:#455a64"></path><path d="M270.74,343.72a2.32,2.32,0,1,1-2.28-2A2.15,2.15,0,0,1,270.74,343.72Z" style="fill:#455a64"></path><path d="M217.18,270.48c.44.06.68.06.68.1s.22,0,.63-.09Z" style="fill:#455a64"></path><path d="M225.05,256a8.27,8.27,0,0,0-1.9-1.88,8.91,8.91,0,0,0-10.58,0,8.32,8.32,0,0,0-1.91,1.88,8.2,8.2,0,0,0-1.22,2.27,9,9,0,0,0,1.24,8.52c.11.14.23.27.34.4a6.44,6.44,0,0,1,5.42-4.49,4.32,4.32,0,0,1-2.59-4.05,4.07,4.07,0,1,1,8.12,0,4.34,4.34,0,0,1-2.58,4,6.33,6.33,0,0,1,5.32,4.48l.33-.39a9.05,9.05,0,0,0,1.24-8.52A8.51,8.51,0,0,0,225.05,256Z" style="fill:#fafafa"></path><path d="M226.78,258.11a8.68,8.68,0,0,0-1.28-2.42,9.12,9.12,0,0,0-2-2,9.45,9.45,0,0,0-11.26,0,9.48,9.48,0,0,0-3.3,4.43,9.53,9.53,0,0,0-.38,5,9.43,9.43,0,0,0,1.8,4,9.23,9.23,0,0,0,5.23,3.34,8,8,0,0,0,1.69.21,2.23,2.23,0,0,0,.59,0s-.24,0-.68-.1h1.31c-.41.05-.63.05-.63.09a2.23,2.23,0,0,0,.59,0,8,8,0,0,0,1.69-.21,9.21,9.21,0,0,0,5.22-3.34,9.32,9.32,0,0,0,1.81-4A9.43,9.43,0,0,0,226.78,258.11Zm-.09,4.89a8.94,8.94,0,0,1-1.65,3.81l-.33.39a6.33,6.33,0,0,0-5.32-4.48,4.34,4.34,0,0,0,2.58-4,4.07,4.07,0,1,0-8.12,0,4.32,4.32,0,0,0,2.59,4.05,6.44,6.44,0,0,0-5.42,4.49c-.11-.13-.23-.26-.34-.4a9,9,0,0,1-1.24-8.52,8.2,8.2,0,0,1,1.22-2.27,8.32,8.32,0,0,1,1.91-1.88,8.91,8.91,0,0,1,10.58,0,8.27,8.27,0,0,1,1.9,1.88,8.51,8.51,0,0,1,1.23,2.27A9,9,0,0,1,226.69,263Z" style="fill:#455a64"></path><path d="M325.9,278.91s.29,0,.83-.11a4.35,4.35,0,0,0,2.13-1.12,4.45,4.45,0,0,0,1.34-3.58c0-1.59,0-3.41,0-5.47,0-4.12,0-9.15-.05-15,0-1.46,0-3,0-4.53a4.26,4.26,0,0,0-2.09-3.89c-1.38-.87-3.18-.49-4.91-.57h-5.38l-115,.09a4.08,4.08,0,0,0-3.35,1.73,3.89,3.89,0,0,0-.71,1.79,19.5,19.5,0,0,0-.05,2V274.7a4.13,4.13,0,0,0,1.7,3.15,4,4,0,0,0,1.67.71,14.68,14.68,0,0,0,1.9.07h22.66l51.69.06,34.84.1,9.48.05,2.46,0c.56,0,.84,0,.84,0l-.84,0-2.46,0-9.48,0-34.84.09-51.69.07H203.93a12.31,12.31,0,0,1-2-.08,4.43,4.43,0,0,1-1.91-.8,4.64,4.64,0,0,1-1.93-3.58q0-8,0-16.16v-8.26c0-.7,0-1.36,0-2.12a4.63,4.63,0,0,1,.81-2.05,4.76,4.76,0,0,1,3.83-2l115,.09h8a4.71,4.71,0,0,1,2.5.64,4.62,4.62,0,0,1,2.25,4.21c0,1.56,0,3.07,0,4.53,0,5.84,0,10.87-.05,15,0,2.06,0,3.88,0,5.47a4.59,4.59,0,0,1-1.44,3.66,4.39,4.39,0,0,1-2.2,1.1A3.14,3.14,0,0,1,325.9,278.91Z" style="fill:#455a64"></path><rect x="235.68" y="253.41" width="32.48" height="2.44" style="fill:#455a64"></rect><rect x="235.68" y="267.18" width="56.9" height="2.44" style="fill:#455a64"></rect><rect x="235.68" y="260.13" width="82.46" height="2.44" style="fill:#455a64"></rect><path d="M217.18,314.28c.44.05.68.06.68.1s.22-.05.63-.09Z" style="fill:#455a64"></path><path d="M225.05,299.82a8.52,8.52,0,0,0-1.9-1.89,9,9,0,0,0-10.58,0,8.57,8.57,0,0,0-1.91,1.89,8.2,8.2,0,0,0-1.22,2.27,9,9,0,0,0,1.24,8.52c.11.14.23.27.34.4a6.44,6.44,0,0,1,5.42-4.49,4.33,4.33,0,0,1-2.59-4,4.07,4.07,0,1,1,8.12,0,4.34,4.34,0,0,1-2.58,4,6.32,6.32,0,0,1,5.32,4.48c.11-.13.22-.25.33-.4a8.84,8.84,0,0,0,1.65-3.8,9,9,0,0,0-.41-4.71A8.51,8.51,0,0,0,225.05,299.82Z" style="fill:#fafafa"></path><path d="M226.78,301.9a8.63,8.63,0,0,0-1.28-2.41,9,9,0,0,0-2-2,9.49,9.49,0,0,0-11.26,0,8.75,8.75,0,0,0-2,2,8.93,8.93,0,0,0-1.29,2.41,9.56,9.56,0,0,0-.38,5,9.33,9.33,0,0,0,1.8,4,9.2,9.2,0,0,0,5.23,3.35,8,8,0,0,0,1.69.21,2.23,2.23,0,0,0,.59,0s-.24-.05-.68-.1h1.31c-.41,0-.63,0-.63.09a2.23,2.23,0,0,0,.59,0,8,8,0,0,0,1.69-.21,9.37,9.37,0,0,0,7-7.31A9.47,9.47,0,0,0,226.78,301.9Zm-.09,4.9a8.84,8.84,0,0,1-1.65,3.8c-.11.15-.22.27-.33.4a6.32,6.32,0,0,0-5.32-4.48,4.34,4.34,0,0,0,2.58-4,4.07,4.07,0,1,0-8.12,0,4.33,4.33,0,0,0,2.59,4A6.44,6.44,0,0,0,211,311c-.11-.13-.23-.26-.34-.4a9,9,0,0,1-1.24-8.52,8.2,8.2,0,0,1,1.22-2.27,8.57,8.57,0,0,1,1.91-1.89,9,9,0,0,1,10.58,0,9.06,9.06,0,0,1,3.13,4.16A9,9,0,0,1,226.69,306.8Z" style="fill:#455a64"></path><path d="M325.9,322.71s.29,0,.83-.11a4.41,4.41,0,0,0,3.47-4.7c0-1.59,0-3.41,0-5.47,0-4.12,0-9.15-.05-15,0-1.46,0-3,0-4.53A4.25,4.25,0,0,0,328,289c-1.38-.87-3.18-.49-4.91-.57h-5.38l-115,.08a4.12,4.12,0,0,0-3.35,1.74,3.89,3.89,0,0,0-.71,1.79,19.43,19.43,0,0,0-.05,2V318.5a4.11,4.11,0,0,0,1.7,3.14,4,4,0,0,0,1.67.72,13.12,13.12,0,0,0,1.9.06h22.66l51.69.06,34.84.09,9.48.06,2.46,0,.84,0s-.28,0-.84,0l-2.46,0-9.48.06-34.84.09-51.69.06H203.93a13.57,13.57,0,0,1-2-.08,4.45,4.45,0,0,1-1.91-.81,4.62,4.62,0,0,1-1.93-3.57q0-7.95,0-16.16v-8.26c0-.7,0-1.36,0-2.12a4.63,4.63,0,0,1,.81-2.05,4.73,4.73,0,0,1,3.83-2l115,.09h8a4.71,4.71,0,0,1,2.5.64,4.61,4.61,0,0,1,2.25,4.21c0,1.56,0,3.07,0,4.53,0,5.84,0,10.87-.05,15,0,2.06,0,3.88,0,5.47a4.6,4.6,0,0,1-1.44,3.66,4.28,4.28,0,0,1-2.2,1.09A3,3,0,0,1,325.9,322.71Z" style="fill:#455a64"></path><rect x="235.68" y="297.21" width="32.48" height="2.44" style="fill:#455a64"></rect><rect x="235.68" y="310.97" width="56.9" height="2.44" style="fill:#455a64"></rect><rect x="235.68" y="303.92" width="82.46" height="2.44" style="fill:#455a64"></rect><circle cx="326.29" cy="158.44" r="6.66" style="fill:#263238"></circle><polyline points="323.02 157.9 325.82 160.36 329.55 156.52" style="fill:none;stroke:#fafafa;stroke-linecap:round;stroke-linejoin:round"></polyline></g></svg>